<?xml version="1.0" encoding="UTF-8"?>
<svg id="Layer_1" xmlns="http://www.w3.org/2000/svg" version="1.1" viewBox="0 0 75.3 50">
  <!-- Generator: Adobe Illustrator 29.2.1, SVG Export Plug-In . SVG Version: 2.1.0 Build 116)  -->
  <defs>
    <style>
      .st0 {
        fill: #08b997;
      }
    </style>
  </defs>
  <path class="st0" d="M1.8,40.8c2.9,5.7,8.6,9.2,14.9,9.2h41.9c6.3,0,12.2-3.6,14.9-9.2,2.9-5.7,2.3-12.5-1.5-17.5l-12.5-16.7c-3.2-4.2-8.1-6.6-13.4-6.6h-16.7c-5.3,0-10.2,2.4-13.4,6.6L3.3,23.3c-3.8,5.1-4.4,11.9-1.5,17.5h0ZM50.1,33.3c0-4.7,3.8-8.4,8.4-8.4s8.4,3.8,8.4,8.4-3.8,8.4-8.4,8.4-8.4-3.8-8.4-8.4ZM10.1,28.3l12.5-16.7c1.5-2.1,4.1-3.3,6.6-3.3h16.7c3.2,0,6,1.8,7.5,4.7,1.4,2.9,1.1,6.2-.8,8.7l-12.5,16.7c-1.5,2.1-4.1,3.3-6.6,3.3h-16.7c-3.2,0-6-1.8-7.5-4.7-1.4-2.9-1.1-6.2.8-8.7h0Z"/>
</svg>